<svg width="741" height="251" viewBox="0 0 741 251" fill="none" xmlns="http://www.w3.org/2000/svg">
<g filter="url(#filter0_i)">
<circle cx="173.789" cy="122.298" r="122.298" fill="#F2F2F2"/>
</g>
<circle cx="78.7524" cy="171.537" r="78.7524" fill="#E0E0E0"/>
<circle cx="187.687" cy="121.371" r="108.4" fill="#E0E0E0"/>
<circle cx="270.145" cy="183.447" r="64.8549" fill="#E0E0E0"/>
<circle cx="66.3155" cy="185.3" r="63.0019" fill="#C4C4C4"/>
<circle cx="66.3155" cy="185.3" r="63.0019" fill="url(#paint0_linear)"/>
<circle cx="269.219" cy="193.638" r="54.6634" fill="#C4C4C4"/>
<circle cx="269.219" cy="193.638" r="54.6634" fill="url(#paint1_linear)"/>
<g filter="url(#filter1_d)">
<circle cx="173.789" cy="122.298" r="83.3849" fill="#C4C4C4"/>
<circle cx="173.789" cy="122.298" r="83.3849" fill="url(#paint2_radial)" style="mix-blend-mode:lighten"/>
</g>
<g filter="url(#filter2_di)">
<path d="M42.4373 237.36C31.8818 237.36 23.5034 232.874 17.302 223.902C11.1007 214.929 8 202.725 8 187.287C8 168.551 12.75 152.24 22.2499 142.476C31.7499 132.58 45.4061 127.632 63.2185 127.632C73.2462 127.632 84.9892 131.277 98.4474 134.444V234.391H71.9267L72.5205 218.162H71.7288C68.2983 224.363 64.0761 229.113 59.0622 232.412C54.1803 235.711 48.6387 237.36 42.4373 237.36ZM48.3748 213.016C52.465 213.016 56.4893 210.839 60.4476 206.485C64.406 202.131 68.1004 196.325 71.5309 189.068V155.819C67.3087 154.631 63.0865 154.037 58.8643 154.037C50.9477 154.037 44.9442 156.742 40.854 162.152C36.8957 167.562 34.9165 175.544 34.9165 186.1C34.9165 194.412 36.104 201.009 38.479 205.891C40.854 210.641 44.1526 213.016 48.3748 213.016Z" fill="#E0E0E0"/>
<path d="M42.4373 237.36C31.8818 237.36 23.5034 232.874 17.302 223.902C11.1007 214.929 8 202.725 8 187.287C8 168.551 12.75 152.24 22.2499 142.476C31.7499 132.58 45.4061 127.632 63.2185 127.632C73.2462 127.632 84.9892 131.277 98.4474 134.444V234.391H71.9267L72.5205 218.162H71.7288C68.2983 224.363 64.0761 229.113 59.0622 232.412C54.1803 235.711 48.6387 237.36 42.4373 237.36ZM48.3748 213.016C52.465 213.016 56.4893 210.839 60.4476 206.485C64.406 202.131 68.1004 196.325 71.5309 189.068V155.819C67.3087 154.631 63.0865 154.037 58.8643 154.037C50.9477 154.037 44.9442 156.742 40.854 162.152C36.8957 167.562 34.9165 175.544 34.9165 186.1C34.9165 194.412 36.104 201.009 38.479 205.891C40.854 210.641 44.1526 213.016 48.3748 213.016Z" fill="url(#paint3_linear)"/>
<path d="M71.8329 134.526H99.1453V150.359C107.194 137.957 118.079 131.755 131.801 131.755C139.586 131.755 146.183 133.603 151.593 137.297C157.135 140.859 161.159 146.005 163.666 152.734C168.284 145.478 173.43 140.2 179.103 136.901C184.909 133.471 191.506 131.755 198.895 131.755C209.846 131.755 218.356 135.054 224.426 141.651C230.627 148.116 233.728 157.155 233.728 168.766V236.453H205.822V173.12C205.822 167.842 204.502 163.752 201.863 160.849C199.357 157.814 195.926 156.297 191.572 156.297C186.162 156.297 181.148 158.54 176.53 163.026C171.912 167.512 168.482 173.252 166.239 180.245V236.453H138.333V173.12C138.333 167.974 137.013 163.884 134.374 160.849C131.735 157.814 128.239 156.297 123.885 156.297C119.003 156.297 114.385 158.144 110.031 161.839C105.808 165.401 102.378 170.481 99.739 177.078V236.453H71.8329V134.526Z" fill="#E0E0E0"/>
<path d="M71.8329 134.526H99.1453V150.359C107.194 137.957 118.079 131.755 131.801 131.755C139.586 131.755 146.183 133.603 151.593 137.297C157.135 140.859 161.159 146.005 163.666 152.734C168.284 145.478 173.43 140.2 179.103 136.901C184.909 133.471 191.506 131.755 198.895 131.755C209.846 131.755 218.356 135.054 224.426 141.651C230.627 148.116 233.728 157.155 233.728 168.766V236.453H205.822V173.12C205.822 167.842 204.502 163.752 201.863 160.849C199.357 157.814 195.926 156.297 191.572 156.297C186.162 156.297 181.148 158.54 176.53 163.026C171.912 167.512 168.482 173.252 166.239 180.245V236.453H138.333V173.12C138.333 167.974 137.013 163.884 134.374 160.849C131.735 157.814 128.239 156.297 123.885 156.297C119.003 156.297 114.385 158.144 110.031 161.839C105.808 165.401 102.378 170.481 99.739 177.078V236.453H71.8329V134.526Z" fill="url(#paint4_linear)"/>
<path d="M268.378 239.421C257.823 239.421 249.444 234.935 243.243 225.963C237.041 216.991 233.941 204.786 233.941 189.349C233.941 170.613 238.691 156.363 248.191 146.599C257.691 136.703 271.347 131.755 289.159 131.755C299.187 131.755 310.93 133.339 324.388 136.505V236.453H297.868L298.461 220.224H297.67C294.239 226.425 290.017 231.175 285.003 234.474C280.121 237.772 274.579 239.421 268.378 239.421ZM274.316 215.078C278.406 215.078 282.43 212.901 286.388 208.547C290.347 204.192 294.041 198.387 297.472 191.13V157.88C293.25 156.693 289.027 156.099 284.805 156.099C276.888 156.099 270.885 158.804 266.795 164.214C262.836 169.623 260.857 177.606 260.857 188.161C260.857 196.474 262.045 203.071 264.42 207.953C266.795 212.703 270.093 215.078 274.316 215.078Z" fill="#E0E0E0"/>
<path d="M268.378 239.421C257.823 239.421 249.444 234.935 243.243 225.963C237.041 216.991 233.941 204.786 233.941 189.349C233.941 170.613 238.691 156.363 248.191 146.599C257.691 136.703 271.347 131.755 289.159 131.755C299.187 131.755 310.93 133.339 324.388 136.505V236.453H297.868L298.461 220.224H297.67C294.239 226.425 290.017 231.175 285.003 234.474C280.121 237.772 274.579 239.421 268.378 239.421ZM274.316 215.078C278.406 215.078 282.43 212.901 286.388 208.547C290.347 204.192 294.041 198.387 297.472 191.13V157.88C293.25 156.693 289.027 156.099 284.805 156.099C276.888 156.099 270.885 158.804 266.795 164.214C262.836 169.623 260.857 177.606 260.857 188.161C260.857 196.474 262.045 203.071 264.42 207.953C266.795 212.703 270.093 215.078 274.316 215.078Z" fill="url(#paint5_linear)"/>
<path d="M361.271 239.421C349.792 239.421 340.754 235.067 334.157 226.359C327.691 217.519 324.459 205.248 324.459 189.547C324.459 170.943 329.275 156.693 338.907 146.797C348.671 136.769 362.525 131.755 380.469 131.755C382.712 131.755 386.077 131.887 390.563 132.151V91.9743H418.073V236.453H390.958L391.552 223.192H390.761C387.33 228.47 383.108 232.494 378.094 235.265C373.212 238.036 367.604 239.421 361.271 239.421ZM367.604 215.078C371.827 215.078 375.917 213.297 379.875 209.734C383.834 206.04 387.396 200.828 390.563 194.099V157.88C386.077 156.693 381.788 156.099 377.698 156.099C369.386 156.099 363.052 158.804 358.698 164.214C354.476 169.623 352.365 177.54 352.365 187.963C352.365 196.408 353.684 203.071 356.323 207.953C359.094 212.703 362.854 215.078 367.604 215.078Z" fill="#E0E0E0"/>
<path d="M361.271 239.421C349.792 239.421 340.754 235.067 334.157 226.359C327.691 217.519 324.459 205.248 324.459 189.547C324.459 170.943 329.275 156.693 338.907 146.797C348.671 136.769 362.525 131.755 380.469 131.755C382.712 131.755 386.077 131.887 390.563 132.151V91.9743H418.073V236.453H390.958L391.552 223.192H390.761C387.33 228.47 383.108 232.494 378.094 235.265C373.212 238.036 367.604 239.421 361.271 239.421ZM367.604 215.078C371.827 215.078 375.917 213.297 379.875 209.734C383.834 206.04 387.396 200.828 390.563 194.099V157.88C386.077 156.693 381.788 156.099 377.698 156.099C369.386 156.099 363.052 158.804 358.698 164.214C354.476 169.623 352.365 177.54 352.365 187.963C352.365 196.408 353.684 203.071 356.323 207.953C359.094 212.703 362.854 215.078 367.604 215.078Z" fill="url(#paint6_linear)"/>
<path d="M415.612 218.047L464.497 158.474H418.976V134.526H498.539V152.734L449.851 212.505H498.539V236.255H415.612V218.047Z" fill="#E0E0E0"/>
<path d="M415.612 218.047L464.497 158.474H418.976V134.526H498.539V152.734L449.851 212.505H498.539V236.255H415.612V218.047Z" fill="url(#paint7_linear)"/>
<path d="M532.754 239.224C521.935 239.224 513.424 235.925 507.223 229.328C501.022 222.731 497.921 213.692 497.921 202.213V134.526H525.827V197.661C525.827 203.071 527.147 207.293 529.785 210.328C532.424 213.231 535.987 214.682 540.473 214.682C544.959 214.682 549.247 213.231 553.337 210.328C557.56 207.425 561.056 203.533 563.827 198.651V134.526H591.733V236.453H563.827V222.994C560.001 228.14 555.58 232.165 550.567 235.067C545.685 237.838 539.747 239.224 532.754 239.224Z" fill="#E0E0E0"/>
<path d="M532.754 239.224C521.935 239.224 513.424 235.925 507.223 229.328C501.022 222.731 497.921 213.692 497.921 202.213V134.526H525.827V197.661C525.827 203.071 527.147 207.293 529.785 210.328C532.424 213.231 535.987 214.682 540.473 214.682C544.959 214.682 549.247 213.231 553.337 210.328C557.56 207.425 561.056 203.533 563.827 198.651V134.526H591.733V236.453H563.827V222.994C560.001 228.14 555.58 232.165 550.567 235.067C545.685 237.838 539.747 239.224 532.754 239.224Z" fill="url(#paint8_linear)"/>
<path d="M620.556 192.12V236.453H592.65V91.7764H620.556V171.734L652.42 134.526H685.472L644.702 180.245L687.649 235.265L657.368 239.421L620.556 192.12Z" fill="#E0E0E0"/>
<path d="M620.556 192.12V236.453H592.65V91.7764H620.556V171.734L652.42 134.526H685.472L644.702 180.245L687.649 235.265L657.368 239.421L620.556 192.12Z" fill="url(#paint9_linear)"/>
<path d="M683.511 91.9743H715.375V117.703H683.511V91.9743ZM668.073 212.505H687.073V158.474H668.073V134.526H714.979V212.505H732V236.453H668.073V212.505Z" fill="#E0E0E0"/>
<path d="M683.511 91.9743H715.375V117.703H683.511V91.9743ZM668.073 212.505H687.073V158.474H668.073V134.526H714.979V212.505H732V236.453H668.073V212.505Z" fill="url(#paint10_linear)"/>
</g>
<defs>
<filter id="filter0_i" x="51.4915" y="0" width="244.596" height="248.596" filterUnits="userSpaceOnUse" color-interpolation-filters="sRGB">
<feFlood flood-opacity="0" result="BackgroundImageFix"/>
<feBlend mode="normal" in="SourceGraphic" in2="BackgroundImageFix" result="shape"/>
<feColorMatrix in="SourceAlpha" type="matrix" values="0 0 0 0 0 0 0 0 0 0 0 0 0 0 0 0 0 0 127 0" result="hardAlpha"/>
<feOffset dy="4"/>
<feGaussianBlur stdDeviation="2"/>
<feComposite in2="hardAlpha" operator="arithmetic" k2="-1" k3="1"/>
<feColorMatrix type="matrix" values="0 0 0 0 0 0 0 0 0 0 0 0 0 0 0 0 0 0 0.25 0"/>
<feBlend mode="normal" in2="shape" result="effect1_innerShadow"/>
</filter>
<filter id="filter1_d" x="86.4044" y="38.9129" width="174.77" height="174.77" filterUnits="userSpaceOnUse" color-interpolation-filters="sRGB">
<feFlood flood-opacity="0" result="BackgroundImageFix"/>
<feColorMatrix in="SourceAlpha" type="matrix" values="0 0 0 0 0 0 0 0 0 0 0 0 0 0 0 0 0 0 127 0"/>
<feOffset dy="4"/>
<feGaussianBlur stdDeviation="2"/>
<feColorMatrix type="matrix" values="0 0 0 0 0 0 0 0 0 0 0 0 0 0 0 0 0 0 0.25 0"/>
<feBlend mode="color-burn" in2="BackgroundImageFix" result="effect1_dropShadow"/>
<feBlend mode="normal" in="SourceGraphic" in2="effect1_dropShadow" result="shape"/>
</filter>
<filter id="filter2_di" x="8" y="91.7764" width="733" height="155.645" filterUnits="userSpaceOnUse" color-interpolation-filters="sRGB">
<feFlood flood-opacity="0" result="BackgroundImageFix"/>
<feColorMatrix in="SourceAlpha" type="matrix" values="0 0 0 0 0 0 0 0 0 0 0 0 0 0 0 0 0 0 127 0"/>
<feOffset dx="5" dy="4"/>
<feGaussianBlur stdDeviation="2"/>
<feColorMatrix type="matrix" values="0 0 0 0 0 0 0 0 0 0 0 0 0 0 0 0 0 0 0.5 0"/>
<feBlend mode="normal" in2="BackgroundImageFix" result="effect1_dropShadow"/>
<feBlend mode="normal" in="SourceGraphic" in2="effect1_dropShadow" result="shape"/>
<feColorMatrix in="SourceAlpha" type="matrix" values="0 0 0 0 0 0 0 0 0 0 0 0 0 0 0 0 0 0 127 0" result="hardAlpha"/>
<feOffset dx="6.05014" dy="7.0585"/>
<feGaussianBlur stdDeviation="2.52089"/>
<feComposite in2="hardAlpha" operator="arithmetic" k2="-1" k3="1"/>
<feColorMatrix type="matrix" values="0 0 0 0 0 0 0 0 0 0 0 0 0 0 0 0 0 0 0.25 0"/>
<feBlend mode="normal" in2="shape" result="effect2_innerShadow"/>
</filter>
<linearGradient id="paint0_linear" x1="189.54" y1="138.975" x2="66.3155" y2="248.302" gradientUnits="userSpaceOnUse">
<stop offset="0.144584" stop-color="white"/>
<stop offset="0.740825" stop-color="white" stop-opacity="0"/>
</linearGradient>
<linearGradient id="paint1_linear" x1="269.219" y1="138.975" x2="269.219" y2="248.302" gradientUnits="userSpaceOnUse">
<stop stop-color="white"/>
<stop offset="1" stop-color="white" stop-opacity="0"/>
</linearGradient>
<radialGradient id="paint2_radial" cx="0" cy="0" r="1" gradientUnits="userSpaceOnUse" gradientTransform="translate(173.789 122.298) rotate(90) scale(83.3849)">
<stop stop-color="white"/>
<stop offset="1" stop-color="white" stop-opacity="0"/>
</radialGradient>
<linearGradient id="paint3_linear" x1="370" y1="91.7764" x2="370" y2="239.421" gradientUnits="userSpaceOnUse">
<stop stop-color="white"/>
<stop offset="0.480113" stop-color="white" stop-opacity="0.936579"/>
<stop offset="1" stop-color="white" stop-opacity="0"/>
</linearGradient>
<linearGradient id="paint4_linear" x1="370" y1="91.7764" x2="370" y2="239.421" gradientUnits="userSpaceOnUse">
<stop stop-color="white"/>
<stop offset="0.480113" stop-color="white" stop-opacity="0.936579"/>
<stop offset="1" stop-color="white" stop-opacity="0"/>
</linearGradient>
<linearGradient id="paint5_linear" x1="370" y1="91.7764" x2="370" y2="239.421" gradientUnits="userSpaceOnUse">
<stop stop-color="white"/>
<stop offset="0.480113" stop-color="white" stop-opacity="0.936579"/>
<stop offset="1" stop-color="white" stop-opacity="0"/>
</linearGradient>
<linearGradient id="paint6_linear" x1="370" y1="91.7764" x2="370" y2="239.421" gradientUnits="userSpaceOnUse">
<stop stop-color="white"/>
<stop offset="0.480113" stop-color="white" stop-opacity="0.936579"/>
<stop offset="1" stop-color="white" stop-opacity="0"/>
</linearGradient>
<linearGradient id="paint7_linear" x1="370" y1="91.7764" x2="370" y2="239.421" gradientUnits="userSpaceOnUse">
<stop stop-color="white"/>
<stop offset="0.480113" stop-color="white" stop-opacity="0.936579"/>
<stop offset="1" stop-color="white" stop-opacity="0"/>
</linearGradient>
<linearGradient id="paint8_linear" x1="370" y1="91.7764" x2="370" y2="239.421" gradientUnits="userSpaceOnUse">
<stop stop-color="white"/>
<stop offset="0.480113" stop-color="white" stop-opacity="0.936579"/>
<stop offset="1" stop-color="white" stop-opacity="0"/>
</linearGradient>
<linearGradient id="paint9_linear" x1="370" y1="91.7764" x2="370" y2="239.421" gradientUnits="userSpaceOnUse">
<stop stop-color="white"/>
<stop offset="0.480113" stop-color="white" stop-opacity="0.936579"/>
<stop offset="1" stop-color="white" stop-opacity="0"/>
</linearGradient>
<linearGradient id="paint10_linear" x1="370" y1="91.7764" x2="370" y2="239.421" gradientUnits="userSpaceOnUse">
<stop stop-color="white"/>
<stop offset="0.480113" stop-color="white" stop-opacity="0.936579"/>
<stop offset="1" stop-color="white" stop-opacity="0"/>
</linearGradient>
</defs>
</svg>
